<svg xmlns="http://www.w3.org/2000/svg" viewBox="0 0 448 512"><!--!Font Awesome Free 6.5.1 by @fontawesome - https://fontawesome.com License - https://fontawesome.com/license/free Copyright 2024 Fonticons, Inc.--><path d="M400 32H48C21.5 32 0 53.5 0 80v352c0 26.5 21.5 48 48 48h352c26.5 0 48-21.5 48-48V80c0-26.5-21.5-48-48-48zM94 416c-7 0-13.1-4.9-14.6-11.6l-15-65a15 15 0 0 1 8.7-17.2l70-30a15 15 0 0 1 17.5 4.3l31 37.9c48.9-23 88.3-62.9 110.8-110.8l-37.9-31a15 15 0 0 1 -4.3-17.5l30-70a15 15 0 0 1 17.2-8.7l65 15A15 15 0 0 1 384 126c0 160.3-129.9 290-290 290z"/></svg>